<svg xmlns="http://www.w3.org/2000/svg" version="1.1" style="font-family:Lato, &#x27;Helvetica Neue&#x27;, Helvetica, Arial, &#x27;Liberation Sans&#x27;, sans-serif;font-size:18px;background-color:white;text-rendering:geometricPrecision;-webkit-font-smoothing:antialiased" width="850" height="600" viewBox="0 0 850 600"><defs><style>@import url(https://ourworldindata.org/fonts.css)</style></defs><defs><pattern id="noDataPattern" patternUnits="userSpaceOnUse" width="4" height="4" patternTransform="rotate(-45 2 2)"><path d="M -1,2 l 6,0" stroke="#ccc" stroke-width="0.7"></path></pattern></defs><rect class="background-fill" fill="white" width="850" height="600"></rect><g id="header" class="HeaderView"><g id="logo" transform="translate(769, 16) scale(1)"><svg className="owidLogo" xmlns="http://www.w3.org/2000/svg" width="65" height="36" viewBox="0 0 65 36"  fill="none"><path fill="#002147" d="M0 0h64.8v36H0z"/><path fill="#CE261E" d="M0 33.3h64.8V36H0z"/><path fill="#fff" d="M13.796 10.575c0 .636-.106 1.226-.318 1.77a4.193 4.193 0 0 1-.894 1.404 4.084 4.084 0 0 1-1.386.93c-.54.22-1.138.33-1.794.33-.656 0-1.256-.11-1.8-.33a4.149 4.149 0 0 1-1.392-.93 4.193 4.193 0 0 1-.894-1.404A4.833 4.833 0 0 1 5 10.575c0-.636.106-1.224.318-1.764a4.18 4.18 0 0 1 .894-1.41 4.076 4.076 0 0 1 1.392-.924 4.684 4.684 0 0 1 1.8-.336c.656 0 1.254.112 1.794.336.54.224 1.002.534 1.386.93.384.392.682.86.894 1.404.212.54.318 1.128.318 1.764Zm-1.656 0c0-.476-.064-.902-.192-1.278a2.671 2.671 0 0 0-.54-.966 2.332 2.332 0 0 0-.864-.606 2.94 2.94 0 0 0-1.14-.21c-.424 0-.806.07-1.146.21-.34.14-.63.342-.87.606a2.742 2.742 0 0 0-.546.966 3.955 3.955 0 0 0-.192 1.278c0 .476.064.904.192 1.284.128.376.31.696.546.96.24.26.53.46.87.6.34.14.722.21 1.146.21.424 0 .804-.07 1.14-.21.34-.14.628-.34.864-.6.236-.264.416-.584.54-.96a4.01 4.01 0 0 0 .192-1.284ZM16.104 8.757v3.912c0 .376.086.668.258.876.176.204.438.306.786.306.256 0 .496-.056.72-.168a2.58 2.58 0 0 0 .636-.474V8.757h1.482v6.156h-.906c-.192 0-.318-.09-.378-.27l-.102-.492a4.65 4.65 0 0 1-.396.354 2.577 2.577 0 0 1-.438.27 2.35 2.35 0 0 1-.498.168 2.345 2.345 0 0 1-.57.066c-.336 0-.634-.056-.894-.168a1.821 1.821 0 0 1-.648-.486 2.157 2.157 0 0 1-.402-.738 3.233 3.233 0 0 1-.132-.948V8.757h1.482ZM21.328 14.913V8.757h.87c.152 0 .258.028.318.084.06.056.1.152.12.288l.09.744c.22-.38.478-.68.774-.9.296-.22.628-.33.996-.33.304 0 .556.07.756.21l-.192 1.11c-.012.072-.038.124-.078.156a.278.278 0 0 1-.162.042 1.01 1.01 0 0 1-.246-.042 1.646 1.646 0 0 0-.414-.042c-.308 0-.572.086-.792.258-.22.168-.406.416-.558.744v3.834h-1.482ZM27.347 6.237h1.356a.57.57 0 0 1 .348.102c.096.064.16.152.192.264l1.476 5.19c.036.128.068.268.096.42.032.148.062.306.09.474a5.968 5.968 0 0 1 .228-.894l1.704-5.19a.575.575 0 0 1 .186-.252.543.543 0 0 1 .348-.114h.474a.57.57 0 0 1 .348.102.497.497 0 0 1 .192.264l1.692 5.19c.088.256.164.54.228.852.028-.156.056-.306.084-.45.032-.144.064-.278.096-.402l1.476-5.19c.028-.1.09-.186.186-.258a.563.563 0 0 1 .348-.108h1.266l-2.694 8.676h-1.458l-1.896-5.928-.078-.246a9.504 9.504 0 0 1-.072-.282c-.024.1-.05.194-.078.282-.024.088-.048.17-.072.246l-1.914 5.928H30.04l-2.694-8.676ZM42.771 8.661c.46 0 .876.074 1.248.222.376.148.696.358.96.63s.468.604.612.996c.144.392.216.83.216 1.314 0 .488-.072.928-.216 1.32a2.85 2.85 0 0 1-.612 1.002 2.653 2.653 0 0 1-.96.636 3.35 3.35 0 0 1-1.248.222c-.46 0-.878-.074-1.254-.222a2.712 2.712 0 0 1-.966-.636 2.922 2.922 0 0 1-.618-1.002 3.807 3.807 0 0 1-.216-1.32c0-.484.072-.922.216-1.314.148-.392.354-.724.618-.996.268-.272.59-.482.966-.63a3.397 3.397 0 0 1 1.254-.222Zm0 5.202c.512 0 .89-.172 1.134-.516.248-.344.372-.848.372-1.512s-.124-1.17-.372-1.518c-.244-.348-.622-.522-1.134-.522-.52 0-.904.176-1.152.528-.248.348-.372.852-.372 1.512s.124 1.164.372 1.512c.248.344.632.516 1.152.516ZM46.723 14.913V8.757h.87c.152 0 .258.028.318.084.06.056.1.152.12.288l.09.744c.22-.38.478-.68.774-.9.296-.22.628-.33.996-.33.304 0 .556.07.756.21l-.192 1.11c-.012.072-.038.124-.078.156a.278.278 0 0 1-.162.042 1.01 1.01 0 0 1-.246-.042 1.646 1.646 0 0 0-.414-.042c-.308 0-.572.086-.792.258-.22.168-.406.416-.558.744v3.834h-1.482ZM52.96 5.997v8.916h-1.482V5.997h1.482ZM58.732 14.913c-.192 0-.318-.09-.378-.27l-.12-.594a3.68 3.68 0 0 1-.402.39c-.14.116-.292.216-.456.3-.16.084-.334.148-.522.192a2.372 2.372 0 0 1-.6.072c-.336 0-.644-.07-.924-.21a2.098 2.098 0 0 1-.726-.606 3.033 3.033 0 0 1-.468-.99 5.072 5.072 0 0 1-.162-1.344c0-.456.062-.88.186-1.272s.302-.732.534-1.02c.232-.288.51-.512.834-.672a2.384 2.384 0 0 1 1.092-.246 2.103 2.103 0 0 1 1.536.606V5.997h1.482v8.916h-.906Zm-1.974-1.086c.308 0 .57-.064.786-.192.216-.128.42-.31.612-.546v-2.76a1.452 1.452 0 0 0-.552-.432 1.597 1.597 0 0 0-.636-.126c-.224 0-.428.042-.612.126a1.21 1.21 0 0 0-.462.384c-.124.168-.22.384-.288.648-.068.26-.102.568-.102.924 0 .36.028.666.084.918.06.248.144.452.252.612.108.156.24.27.396.342.156.068.33.102.522.102ZM16.331 20.757v6.156H14.85v-6.156h1.481Zm.223-1.794a.844.844 0 0 1-.078.36.963.963 0 0 1-.21.294.995.995 0 0 1-.3.204.963.963 0 0 1-.372.072.948.948 0 0 1-.367-.072 1.018 1.018 0 0 1-.498-.498.963.963 0 0 1 0-.732.995.995 0 0 1 .205-.3.929.929 0 0 1 .293-.198.899.899 0 0 1 .738 0 .912.912 0 0 1 .3.198.943.943 0 0 1 .288.672ZM17.771 26.913v-6.156h.906c.192 0 .318.09.378.27l.102.486a2.934 2.934 0 0 1 .828-.618c.156-.076.322-.134.498-.174.176-.04.368-.06.576-.06.336 0 .634.058.894.174.26.112.476.272.648.48.176.204.308.45.396.738.092.284.138.598.138.942v3.918h-1.482v-3.918c0-.376-.088-.666-.264-.87-.172-.208-.432-.312-.78-.312-.256 0-.496.058-.72.174a2.58 2.58 0 0 0-.636.474v4.452h-1.482ZM34.22 22.575c0 .636-.106 1.22-.318 1.752-.212.532-.51.99-.894 1.374a4 4 0 0 1-1.386.894 4.87 4.87 0 0 1-1.794.318h-3.312v-8.676h3.312a4.79 4.79 0 0 1 1.794.324 4 4 0 0 1 1.386.894c.384.38.682.836.894 1.368.212.532.318 1.116.318 1.752Zm-1.65 0c0-.476-.064-.902-.192-1.278a2.68 2.68 0 0 0-.546-.96 2.332 2.332 0 0 0-.864-.606 2.94 2.94 0 0 0-1.14-.21h-1.686v6.108h1.686c.424 0 .804-.07 1.14-.21.34-.14.628-.34.864-.6a2.75 2.75 0 0 0 .546-.96 4.01 4.01 0 0 0 .192-1.284ZM39.98 26.913h-.665c-.14 0-.25-.02-.33-.06-.08-.044-.14-.13-.18-.258l-.132-.438c-.156.14-.31.264-.462.372a2.804 2.804 0 0 1-.462.264c-.16.072-.33.126-.51.162-.18.036-.38.054-.6.054-.26 0-.5-.034-.72-.102a1.618 1.618 0 0 1-.57-.318 1.448 1.448 0 0 1-.366-.522 1.852 1.852 0 0 1-.132-.726c0-.232.06-.46.18-.684.124-.228.328-.432.612-.612.284-.184.662-.336 1.134-.456.472-.12 1.058-.188 1.758-.204v-.36c0-.412-.088-.716-.264-.912-.172-.2-.424-.3-.756-.3a1.837 1.837 0 0 0-1.02.276c-.116.068-.224.13-.324.186a.664.664 0 0 1-.33.084.429.429 0 0 1-.258-.078.614.614 0 0 1-.174-.192l-.27-.474c.708-.648 1.562-.972 2.562-.972.36 0 .68.06.96.18.284.116.524.28.72.492.196.208.344.458.444.75.104.292.156.612.156.96v3.888Zm-2.88-.924c.153 0 .293-.014.42-.042.129-.028.249-.07.36-.126.117-.056.227-.124.33-.204.109-.084.217-.182.325-.294v-1.038c-.432.02-.794.058-1.086.114-.288.052-.52.12-.696.204a.923.923 0 0 0-.378.294.664.664 0 0 0-.108.366c0 .26.076.446.228.558.156.112.358.168.606.168ZM43.22 27.01c-.532 0-.942-.15-1.23-.45-.288-.305-.432-.723-.432-1.255v-3.438h-.624a.31.31 0 0 1-.21-.078c-.056-.052-.084-.13-.084-.234v-.588l.99-.162.312-1.68a.302.302 0 0 1 .108-.186.365.365 0 0 1 .222-.066h.768v1.938h1.62v1.056h-1.62v3.336c0 .192.048.342.144.45a.488.488 0 0 0 .384.162c.092 0 .168-.01.228-.03.064-.024.118-.048.162-.072.048-.024.09-.046.126-.066a.194.194 0 0 1 .108-.036.16.16 0 0 1 .108.036c.028.02.058.052.09.096l.444.72c-.216.18-.464.316-.744.408a2.77 2.77 0 0 1-.87.138ZM50.423 26.913h-.666c-.14 0-.25-.02-.33-.06-.08-.044-.14-.13-.18-.258l-.132-.438c-.156.14-.31.264-.462.372a2.804 2.804 0 0 1-.462.264c-.16.072-.33.126-.51.162-.18.036-.38.054-.6.054-.26 0-.5-.034-.72-.102a1.618 1.618 0 0 1-.57-.318 1.448 1.448 0 0 1-.366-.522 1.852 1.852 0 0 1-.132-.726c0-.232.06-.46.18-.684.124-.228.328-.432.612-.612.284-.184.662-.336 1.134-.456.472-.12 1.058-.188 1.758-.204v-.36c0-.412-.088-.716-.264-.912-.172-.2-.424-.3-.756-.3a1.837 1.837 0 0 0-1.02.276c-.116.068-.224.13-.324.186a.664.664 0 0 1-.33.084.429.429 0 0 1-.258-.078.614.614 0 0 1-.174-.192l-.27-.474c.708-.648 1.562-.972 2.562-.972.36 0 .68.06.96.18.284.116.524.28.72.492.196.208.344.458.444.75.104.292.156.612.156.96v3.888Zm-2.88-.924c.152 0 .292-.014.42-.042.128-.028.248-.07.36-.126.116-.056.226-.124.33-.204.108-.084.216-.182.324-.294v-1.038c-.432.02-.794.058-1.086.114-.288.052-.52.12-.696.204a.923.923 0 0 0-.378.294.664.664 0 0 0-.108.366c0 .26.076.446.228.558.156.112.358.168.606.168Z"/></svg></g><a id="title" href="https://ourworldindata.org/explorers/global-food?tab=chart&amp;facet=none&amp;country=USA~ZAF%3BhideControls~IND~ARG~OWID_EUR~GBR~OWID_AFR~CHN&amp;Food=Cereals&amp;Metric=Production&amp;Per+Capita=true" style="font-family:&#x27;Playfair Display&#x27;, Georgia, &#x27;Times New Roman&#x27;, &#x27;Liberation Serif&#x27;, serif" target="_blank" rel="noopener"><text font-size="24.75" font-weight="600" x="16.0" y="40.0" fill="#5b5b5b"><tspan x="16" y="40.0075">Per capita cereal production, 1961 to 2022</tspan></text></a></g><g id="chart-area" style="pointer-events:none"><g id="line-chart" class="LineChart"><defs><clipPath id="boundsClip-41"><rect x="63.110000000000014" y="58" width="838" height="485.6"></rect></clipPath></defs><rect x="16" y="68" width="818" height="465.6" fill="none"></rect><g id="dual-axis" class="DualAxisView"><g id="horizontal-axis" class="HorizontalAxis"><g id="tick__1961"><line x1="73.1" y1="512.6" x2="73.1" y2="518.1" stroke="#999" stroke-width="1"></line><text x="73.11000000000001" y="531.6" fill="#5b5b5b" text-anchor="start" font-size="13.5">1961</text></g><g id="tick__2022"><line x1="702.6" y1="512.6" x2="702.6" y2="518.1" stroke="#999" stroke-width="1"></line><text x="702.61" y="531.6" fill="#5b5b5b" text-anchor="end" font-size="13.5">2022</text></g><g id="tick__1970"><line x1="166" y1="512.6" x2="166" y2="518.1" stroke="#999" stroke-width="1"></line><text x="166" y="531.6" fill="#5b5b5b" text-anchor="middle" font-size="13.5">1970</text></g><g id="tick__1980"><line x1="269.2" y1="512.6" x2="269.2" y2="518.1" stroke="#999" stroke-width="1"></line><text x="269.2" y="531.6" fill="#5b5b5b" text-anchor="middle" font-size="13.5">1980</text></g><g id="tick__1990"><line x1="372.4" y1="512.6" x2="372.4" y2="518.1" stroke="#999" stroke-width="1"></line><text x="372.4" y="531.6" fill="#5b5b5b" text-anchor="middle" font-size="13.5">1990</text></g><g id="tick__2000"><line x1="475.6" y1="512.6" x2="475.6" y2="518.1" stroke="#999" stroke-width="1"></line><text x="475.6" y="531.6" fill="#5b5b5b" text-anchor="middle" font-size="13.5">2000</text></g><g id="tick__2010"><line x1="578.8" y1="512.6" x2="578.8" y2="518.1" stroke="#999" stroke-width="1"></line><text x="578.8" y="531.6" fill="#5b5b5b" text-anchor="middle" font-size="13.5">2010</text></g></g><g id="vertical-axis" class="VerticalAxis"><g id="tick-labels"><text id="tick-label__0-kg" x="68.11" y="513.1" dy=".32em" text-anchor="end" fill="#5b5b5b" font-size="13.5">0 kg</text><text id="tick-label__500-kg" x="68.11" y="404" dy=".32em" text-anchor="end" fill="#5b5b5b" font-size="13.5">500 kg</text><text id="tick-label__1__002c000-kg" x="68.11" y="294.9" dy=".32em" text-anchor="end" fill="#5b5b5b" font-size="13.5">1,000 kg</text><text id="tick-label__1__002c500-kg" x="68.11" y="185.8" dy=".32em" text-anchor="end" fill="#5b5b5b" font-size="13.5">1,500 kg</text><text id="tick-label__2__002c000-kg" x="68.11" y="76.7" dy=".32em" text-anchor="end" fill="#5b5b5b" font-size="13.5">2,000 kg</text></g></g><g id="horizontal-grid-lines" class="AxisGridLines horizontalLines"><line id="grid-line__0" x1="73.11" y1="513.1" x2="702.61" y2="513.1" stroke="#999" stroke-width="1"></line><line id="grid-line__500" x1="73.11" y1="404" x2="702.61" y2="404" stroke="#ddd" stroke-width="1" stroke-dasharray="3,2"></line><line id="grid-line__1000" x1="73.11" y1="294.9" x2="702.61" y2="294.9" stroke="#ddd" stroke-width="1" stroke-dasharray="3,2"></line><line id="grid-line__1500" x1="73.11" y1="185.8" x2="702.61" y2="185.8" stroke="#ddd" stroke-width="1" stroke-dasharray="3,2"></line><line id="grid-line__2000" x1="73.11" y1="76.7" x2="702.61" y2="76.7" stroke="#ddd" stroke-width="1" stroke-dasharray="3,2"></line></g></g><g clip-path="url(#boundsClip-41)"><g id="line-labels" class="LineLabels"><g id="mark__Argentina" class="legendMark" style="cursor:default"><rect id="background" x="702.61" y="68" width="93.05000000000001" height="13.5" fill="#fff" opacity="0"></rect><text id="label" font-size="13.50" font-weight="400" x="706.6" y="79.7" fill="#286bbb"><tspan x="706.61" y="79.745">Argentina</tspan></text></g><g id="mark__United-States" class="legendMark" style="cursor:default"><rect id="background" x="702.61" y="241.25" width="116.405" height="13.5" fill="#fff" opacity="0"></rect><text id="label" font-size="13.50" font-weight="400" x="706.6" y="253.0" fill="#cf0a66"><tspan x="706.61" y="252.995">United States</tspan></text></g><g id="mark__Europe" class="legendMark" style="cursor:default"><rect id="background" x="702.61" y="352.55" width="78.74000000000001" height="13.5" fill="#fff" opacity="0"></rect><text id="label" font-size="13.50" font-weight="400" x="706.6" y="364.3" fill="#996d39"><tspan x="706.61" y="364.295">Europe</tspan></text></g><g id="mark__China" class="legendMark" style="cursor:default"><rect id="background" x="702.61" y="409.45" width="70.37" height="13.5" fill="#fff" opacity="0"></rect><text id="label" font-size="13.50" font-weight="400" x="706.6" y="421.2" fill="#00847e"><tspan x="706.61" y="421.195">China</tspan></text></g><g id="mark__United-Kingdom" class="legendMark" style="cursor:default"><rect id="background" x="702.61" y="427.65" width="131.39" height="13.5" fill="#fff" opacity="0"></rect><text id="label" font-size="13.50" font-weight="400" x="706.6" y="439.4" fill="#6d3e91"><tspan x="706.61" y="439.395">United Kingdom</tspan></text></g><g id="mark__India" class="legendMark" style="cursor:default"><rect id="background" x="702.61" y="451.65" width="64.43" height="13.5" fill="#fff" opacity="0"></rect><text id="label" font-size="13.50" font-weight="400" x="706.6" y="463.4" fill="#18470f"><tspan x="706.61" y="463.395">India</tspan></text></g><g id="mark__Africa" class="legendMark" style="cursor:default"><rect id="background" x="702.61" y="472.95" width="69.56" height="13.5" fill="#fff" opacity="0"></rect><text id="label" font-size="13.50" font-weight="400" x="706.6" y="484.7" fill="#970046"><tspan x="706.61" y="484.695">Africa</tspan></text></g></g><g id="lines" class="Lines"><rect x="73" y="74" width="630" height="439" fill="rgba(255,255,255,0)" opacity="0"></rect><g id="line__United-States"><path stroke-linecap="round" stroke-linejoin="round" stroke="#ddd" d="M73.1 313.7L83.4 318.2L93.7 306.5L104.1 325.6L114.4 301.9L124.7 303.3L135 278.7L145.3 287.3L155.7 286.7L166 309.6L176.3 257.6L186.6 270.6L196.9 262.9L207.3 299.8L217.6 255.6L227.9 248.9L238.2 243.7L248.5 236.1L258.9 213.6L269.2 249.2L279.5 193.1L289.8 194.3L300.1 316.4L310.5 218L320.8 191L331.1 223.4L341.4 257.9L351.7 327.1L362.1 259.9L372.4 238.3L382.7 270.2L393 211.2L403.3 294.6L413.7 217L424 285.1L434.3 240.7L444.6 243.5L454.9 236.7L465.3 251L475.6 248.4L485.9 264.7L496.2 288.2L506.5 252.1L516.9 224.3L527.2 243.7L537.5 266.8L547.8 213.9L558.1 225.9L568.5 217L578.8 231.8L589.1 245.1L599.4 267.6L609.7 216.4L620.1 213L630.4 222.8L640.7 177.4L651 221.8L661.3 224.2L671.7 238.4L682 231.7L692.3 220.7L702.6 248" fill="none" stroke-width="1"></path></g><g id="line__United-Kingdom"><path stroke-linecap="round" stroke-linejoin="round" stroke="#ddd" d="M73.1 473L83.4 464.7L93.7 466.8L104.1 461.2L114.4 457.9L124.7 459.4L135 454.8L145.3 461.1L155.7 459.6L166 461.1L176.3 454.6L186.6 452.6L196.9 453.6L207.3 449.5L217.6 459.1L227.9 461.7L238.2 448.2L248.5 446.1L258.9 445.6L269.2 437.7L279.5 437.2L289.8 428.4L300.1 430.8L310.5 410.4L320.8 426.5L331.1 418.8L341.4 429.8L351.7 432.4L362.1 426.2L372.4 427L382.7 427L393 429.4L403.3 439.4L413.7 437.8L424 430.8L434.3 421L444.6 425L454.9 428.1L465.3 430.8L475.6 424.2L485.9 443.1L496.2 428.7L506.5 434.5L516.9 433.1L527.2 437.2L537.5 438.3L547.8 445L558.1 427.3L568.5 437.3L578.8 440.3L589.1 439L599.4 446.4L609.7 445L620.1 430.7L630.4 430.4L640.7 440.1L651 437.1L661.3 443.8L671.7 429.7L682 451.4L692.3 440.6L702.6 434.4" fill="none" stroke-width="1"></path></g><g id="line__India"><path stroke-linecap="round" stroke-linejoin="round" stroke="#ddd" d="M73.1 471.3L83.4 472.3L93.7 471.8L104.1 471.3L114.4 478.3L124.7 478.9L135 473.2L145.3 471.2L155.7 470.6L166 468.5L176.3 469.8L186.6 472.4L196.9 469.3L207.3 474.9L217.6 468.4L227.9 471.5L238.2 466.9L248.5 466.3L258.9 472.6L269.2 469.1L279.5 467.9L289.8 472.4L300.1 464.3L310.5 466.1L320.8 466.8L331.1 468L341.4 471.3L351.7 465L362.1 462L372.4 464.5L382.7 465.7L393 464.7L403.3 464L413.7 464.2L424 465.6L434.3 464.6L444.6 464.5L454.9 464.6L465.3 463.6L475.6 464.7L485.9 464L496.2 472L506.5 466.9L516.9 469L527.2 467.7L537.5 467.9L547.8 465.3L558.1 464.9L568.5 468.4L578.8 466L589.1 463.2L599.4 462.9L609.7 463.1L620.1 463.5L630.4 465.9L640.7 465L651 462.9L661.3 461.8L671.7 461.8L682 459.6L692.3 458.1L702.6 458.4" fill="none" stroke-width="1"></path></g><g id="line__Europe"><path stroke-linecap="round" stroke-linejoin="round" stroke="#ddd" d="M73.1 423.3L83.4 418.4L93.7 429.9L104.1 415.4L114.4 422.6L124.7 407.3L135 409.7L145.3 403.5L155.7 405.3L166 402.9L176.3 394.8L186.6 397.9L196.9 383.9L207.3 388.2L217.6 408.2L227.9 386.3L238.2 391.3L248.5 374.8L258.9 393.9L269.2 387L279.5 399.6L289.8 385.5L300.1 388.5L310.5 381.1L320.8 383.2L331.1 379.3L341.4 382.5L351.7 383.9L362.1 378.2L372.4 375L382.7 385.3L393 389.5L403.3 387.9L413.7 397L424 399.3L434.3 395.1L444.6 379.8L454.9 396.5L465.3 399.4L475.6 397.8L485.9 383.9L496.2 382.3L506.5 404.2L516.9 372.4L527.2 385.3L537.5 392L547.8 395.3L558.1 362.4L568.5 374.1L578.8 392.7L589.1 374.7L599.4 388.8L609.7 369.5L620.1 357.4L630.4 364.7L640.7 362.7L651 358.7L661.3 367L671.7 354.1L682 359.2L692.3 352.1L702.6 359.3" fill="none" stroke-width="1"></path></g><g id="line__China"><path stroke-linecap="round" stroke-linejoin="round" stroke="#ddd" d="M73.1 477.5L83.4 474.5L93.7 470.1L104.1 466.8L114.4 465.1L124.7 461.9L135 462.1L145.3 464.5L155.7 465.9L166 460.7L176.3 459L186.6 461.7L196.9 458.9L207.3 457L217.6 455.6L227.9 455.2L238.2 457.6L248.5 451.5L258.9 447.9L269.2 451.5L279.5 451.1L289.8 445.9L300.1 440.5L310.5 437.3L320.8 443.8L331.1 442.4L341.4 442.2L351.7 444.9L362.1 442.9L372.4 436.9L382.7 439.3L393 439.1L403.3 439.2L413.7 441.9L424 438.6L434.3 433L444.6 434.9L454.9 433.3L465.3 434.4L475.6 443.2L485.9 445.1L496.2 445.5L506.5 449.6L516.9 443.9L527.2 441.6L537.5 438.1L547.8 437.7L558.1 434.5L568.5 434.5L578.8 432.5L589.1 429.3L599.4 426.6L609.7 425L620.1 424.8L630.4 416.3L640.7 417.4L651 418.1L661.3 419.2L671.7 419L682 418.7L692.3 416.3L702.6 416.2" fill="none" stroke-width="1"></path></g><g id="line__Argentina"><path stroke-linecap="round" stroke-linejoin="round" stroke="#ddd" d="M73.1 360L83.4 368.2L93.7 336.1L104.1 303.8L114.4 376.1L124.7 344.4L135 325.4L145.3 359.3L155.7 341.3L166 330.8L176.3 315.1L186.6 346.1L196.9 305L207.3 310.7L217.6 318.8L227.9 306.5L238.2 329.3L248.5 290.4L258.9 314.8L269.2 367.9L279.5 283.1L289.8 254.1L300.1 277.7L310.5 280.1L320.8 310.8L331.1 327.7L341.4 352.7L351.7 359.3L362.1 390.1L372.4 385.1L382.7 362.6L393 346.6L403.3 349.1L413.7 362.6L424 349L434.3 364.6L444.6 289.5L454.9 269.7L465.3 323L475.6 289.5L485.9 299.7L496.2 311.2L506.5 328L516.9 320.2L527.2 278.8L537.5 334.8L547.8 282.9L558.1 269.5L568.5 372.9L578.8 302L589.1 245.5L599.4 266.7L609.7 251.9L620.1 254.3L630.4 230.7L640.7 207.6L651 134.7L661.3 166.3L671.7 105.3L682 97.9L692.3 90.5L702.6 74" fill="none" stroke-width="1"></path></g><g id="line__Africa"><path stroke-linecap="round" stroke-linejoin="round" stroke="#ddd" d="M73.1 478.6L83.4 474.2L93.7 474.2L104.1 477.2L114.4 477.6L124.7 480.6L135 473.7L145.3 476.1L155.7 476.3L166 477L176.3 474.8L186.6 476.1L196.9 481.4L207.3 474.6L217.6 477.2L227.9 477.5L238.2 480.4L248.5 479.9L258.9 482L269.2 480.1L279.5 479.4L289.8 482.1L300.1 485.7L310.5 485.9L320.8 480.6L331.1 479.3L341.4 481.3L351.7 478.9L362.1 477.5L372.4 480.5L382.7 478.4L393 484.6L403.3 481L413.7 479.5L424 483.3L434.3 476.6L444.6 481.7L454.9 481.1L465.3 481.6L475.6 483.1L485.9 483L496.2 482.6L506.5 480.5L516.9 480.4L527.2 479.8L537.5 478.7L547.8 481.8L558.1 478.8L568.5 478.8L578.8 477.5L589.1 479.6L599.4 478.9L609.7 478.8L620.1 477.2L630.4 478.9L640.7 479.5L651 477.2L661.3 477.7L671.7 479.7L682 478.7L692.3 478.3L702.6 479.7" fill="none" stroke-width="1"></path></g><g id="line__United-States"><path id="outline" fill="none" stroke-linecap="butt" stroke-linejoin="round" stroke="#fff" stroke-width="2.5" d="M73.1 313.7L83.4 318.2L93.7 306.5L104.1 325.6L114.4 301.9L124.7 303.3L135 278.7L145.3 287.3L155.7 286.7L166 309.6L176.3 257.6L186.6 270.6L196.9 262.9L207.3 299.8L217.6 255.6L227.9 248.9L238.2 243.7L248.5 236.1L258.9 213.6L269.2 249.2L279.5 193.1L289.8 194.3L300.1 316.4L310.5 218L320.8 191L331.1 223.4L341.4 257.9L351.7 327.1L362.1 259.9L372.4 238.3L382.7 270.2L393 211.2L403.3 294.6L413.7 217L424 285.1L434.3 240.7L444.6 243.5L454.9 236.7L465.3 251L475.6 248.4L485.9 264.7L496.2 288.2L506.5 252.1L516.9 224.3L527.2 243.7L537.5 266.8L547.8 213.9L558.1 225.9L568.5 217L578.8 231.8L589.1 245.1L599.4 267.6L609.7 216.4L620.1 213L630.4 222.8L640.7 177.4L651 221.8L661.3 224.2L671.7 238.4L682 231.7L692.3 220.7L702.6 248"></path><g id="polyline"><polyline id="polyline" points="73.10,313.70 83.40,318.20 93.70,306.50 104.10,325.60 114.40,301.90 124.70,303.30 135.00,278.70 145.30,287.30 155.70,286.70 166.00,309.60 176.30,257.60 186.60,270.60 196.90,262.90 207.30,299.80 217.60,255.60 227.90,248.90 238.20,243.70 248.50,236.10 258.90,213.60 269.20,249.20 279.50,193.10 289.80,194.30 300.10,316.40 310.50,218.00 320.80,191.00 331.10,223.40 341.40,257.90 351.70,327.10 362.10,259.90 372.40,238.30 382.70,270.20 393.00,211.20 403.30,294.60 413.70,217.00 424.00,285.10 434.30,240.70 444.60,243.50 454.90,236.70 465.30,251.00 475.60,248.40 485.90,264.70 496.20,288.20 506.50,252.10 516.90,224.30 527.20,243.70 537.50,266.80 547.80,213.90 558.10,225.90 568.50,217.00 578.80,231.80 589.10,245.10 599.40,267.60 609.70,216.40 620.10,213.00 630.40,222.80 640.70,177.40 651.00,221.80 661.30,224.20 671.70,238.40 682.00,231.70 692.30,220.70 702.60,248.00" stroke-linejoin="round" stroke-width="1.5" stroke="#CF0A66" fill="none" stroke-linecap="butt"></polyline></g><g id="markers"><circle cx="73.1" cy="313.7" r="1.8" fill="#CF0A66"></circle><circle cx="83.4" cy="318.2" r="1.8" fill="#CF0A66"></circle><circle cx="93.7" cy="306.5" r="1.8" fill="#CF0A66"></circle><circle cx="104.1" cy="325.6" r="1.8" fill="#CF0A66"></circle><circle cx="114.4" cy="301.9" r="1.8" fill="#CF0A66"></circle><circle cx="124.7" cy="303.3" r="1.8" fill="#CF0A66"></circle><circle cx="135" cy="278.7" r="1.8" fill="#CF0A66"></circle><circle cx="145.3" cy="287.3" r="1.8" fill="#CF0A66"></circle><circle cx="155.7" cy="286.7" r="1.8" fill="#CF0A66"></circle><circle cx="166" cy="309.6" r="1.8" fill="#CF0A66"></circle><circle cx="176.3" cy="257.6" r="1.8" fill="#CF0A66"></circle><circle cx="186.6" cy="270.6" r="1.8" fill="#CF0A66"></circle><circle cx="196.9" cy="262.9" r="1.8" fill="#CF0A66"></circle><circle cx="207.3" cy="299.8" r="1.8" fill="#CF0A66"></circle><circle cx="217.6" cy="255.6" r="1.8" fill="#CF0A66"></circle><circle cx="227.9" cy="248.9" r="1.8" fill="#CF0A66"></circle><circle cx="238.2" cy="243.7" r="1.8" fill="#CF0A66"></circle><circle cx="248.5" cy="236.1" r="1.8" fill="#CF0A66"></circle><circle cx="258.9" cy="213.6" r="1.8" fill="#CF0A66"></circle><circle cx="269.2" cy="249.2" r="1.8" fill="#CF0A66"></circle><circle cx="279.5" cy="193.1" r="1.8" fill="#CF0A66"></circle><circle cx="289.8" cy="194.3" r="1.8" fill="#CF0A66"></circle><circle cx="300.1" cy="316.4" r="1.8" fill="#CF0A66"></circle><circle cx="310.5" cy="218" r="1.8" fill="#CF0A66"></circle><circle cx="320.8" cy="191" r="1.8" fill="#CF0A66"></circle><circle cx="331.1" cy="223.4" r="1.8" fill="#CF0A66"></circle><circle cx="341.4" cy="257.9" r="1.8" fill="#CF0A66"></circle><circle cx="351.7" cy="327.1" r="1.8" fill="#CF0A66"></circle><circle cx="362.1" cy="259.9" r="1.8" fill="#CF0A66"></circle><circle cx="372.4" cy="238.3" r="1.8" fill="#CF0A66"></circle><circle cx="382.7" cy="270.2" r="1.8" fill="#CF0A66"></circle><circle cx="393" cy="211.2" r="1.8" fill="#CF0A66"></circle><circle cx="403.3" cy="294.6" r="1.8" fill="#CF0A66"></circle><circle cx="413.7" cy="217" r="1.8" fill="#CF0A66"></circle><circle cx="424" cy="285.1" r="1.8" fill="#CF0A66"></circle><circle cx="434.3" cy="240.7" r="1.8" fill="#CF0A66"></circle><circle cx="444.6" cy="243.5" r="1.8" fill="#CF0A66"></circle><circle cx="454.9" cy="236.7" r="1.8" fill="#CF0A66"></circle><circle cx="465.3" cy="251" r="1.8" fill="#CF0A66"></circle><circle cx="475.6" cy="248.4" r="1.8" fill="#CF0A66"></circle><circle cx="485.9" cy="264.7" r="1.8" fill="#CF0A66"></circle><circle cx="496.2" cy="288.2" r="1.8" fill="#CF0A66"></circle><circle cx="506.5" cy="252.1" r="1.8" fill="#CF0A66"></circle><circle cx="516.9" cy="224.3" r="1.8" fill="#CF0A66"></circle><circle cx="527.2" cy="243.7" r="1.8" fill="#CF0A66"></circle><circle cx="537.5" cy="266.8" r="1.8" fill="#CF0A66"></circle><circle cx="547.8" cy="213.9" r="1.8" fill="#CF0A66"></circle><circle cx="558.1" cy="225.9" r="1.8" fill="#CF0A66"></circle><circle cx="568.5" cy="217" r="1.8" fill="#CF0A66"></circle><circle cx="578.8" cy="231.8" r="1.8" fill="#CF0A66"></circle><circle cx="589.1" cy="245.1" r="1.8" fill="#CF0A66"></circle><circle cx="599.4" cy="267.6" r="1.8" fill="#CF0A66"></circle><circle cx="609.7" cy="216.4" r="1.8" fill="#CF0A66"></circle><circle cx="620.1" cy="213" r="1.8" fill="#CF0A66"></circle><circle cx="630.4" cy="222.8" r="1.8" fill="#CF0A66"></circle><circle cx="640.7" cy="177.4" r="1.8" fill="#CF0A66"></circle><circle cx="651" cy="221.8" r="1.8" fill="#CF0A66"></circle><circle cx="661.3" cy="224.2" r="1.8" fill="#CF0A66"></circle><circle cx="671.7" cy="238.4" r="1.8" fill="#CF0A66"></circle><circle cx="682" cy="231.7" r="1.8" fill="#CF0A66"></circle><circle cx="692.3" cy="220.7" r="1.8" fill="#CF0A66"></circle><circle cx="702.6" cy="248" r="1.8" fill="#CF0A66"></circle></g></g><g id="line__United-Kingdom"><path id="outline" fill="none" stroke-linecap="butt" stroke-linejoin="round" stroke="#fff" stroke-width="2.5" d="M73.1 473L83.4 464.7L93.7 466.8L104.1 461.2L114.4 457.9L124.7 459.4L135 454.8L145.3 461.1L155.7 459.6L166 461.1L176.3 454.6L186.6 452.6L196.9 453.6L207.3 449.5L217.6 459.1L227.9 461.7L238.2 448.2L248.5 446.1L258.9 445.6L269.2 437.7L279.5 437.2L289.8 428.4L300.1 430.8L310.5 410.4L320.8 426.5L331.1 418.8L341.4 429.8L351.7 432.4L362.1 426.2L372.4 427L382.7 427L393 429.4L403.3 439.4L413.7 437.8L424 430.8L434.3 421L444.6 425L454.9 428.1L465.3 430.8L475.6 424.2L485.9 443.1L496.2 428.7L506.5 434.5L516.9 433.1L527.2 437.2L537.5 438.3L547.8 445L558.1 427.3L568.5 437.3L578.8 440.3L589.1 439L599.4 446.4L609.7 445L620.1 430.7L630.4 430.4L640.7 440.1L651 437.1L661.3 443.8L671.7 429.7L682 451.4L692.3 440.6L702.6 434.4"></path><g id="polyline"><polyline id="polyline" points="73.10,473.00 83.40,464.70 93.70,466.80 104.10,461.20 114.40,457.90 124.70,459.40 135.00,454.80 145.30,461.10 155.70,459.60 166.00,461.10 176.30,454.60 186.60,452.60 196.90,453.60 207.30,449.50 217.60,459.10 227.90,461.70 238.20,448.20 248.50,446.10 258.90,445.60 269.20,437.70 279.50,437.20 289.80,428.40 300.10,430.80 310.50,410.40 320.80,426.50 331.10,418.80 341.40,429.80 351.70,432.40 362.10,426.20 372.40,427.00 382.70,427.00 393.00,429.40 403.30,439.40 413.70,437.80 424.00,430.80 434.30,421.00 444.60,425.00 454.90,428.10 465.30,430.80 475.60,424.20 485.90,443.10 496.20,428.70 506.50,434.50 516.90,433.10 527.20,437.20 537.50,438.30 547.80,445.00 558.10,427.30 568.50,437.30 578.80,440.30 589.10,439.00 599.40,446.40 609.70,445.00 620.10,430.70 630.40,430.40 640.70,440.10 651.00,437.10 661.30,443.80 671.70,429.70 682.00,451.40 692.30,440.60 702.60,434.40" stroke-linejoin="round" stroke-width="1.5" stroke="#6D3E91" fill="none" stroke-linecap="butt"></polyline></g><g id="markers"><circle cx="73.1" cy="473" r="1.8" fill="#6D3E91"></circle><circle cx="83.4" cy="464.7" r="1.8" fill="#6D3E91"></circle><circle cx="93.7" cy="466.8" r="1.8" fill="#6D3E91"></circle><circle cx="104.1" cy="461.2" r="1.8" fill="#6D3E91"></circle><circle cx="114.4" cy="457.9" r="1.8" fill="#6D3E91"></circle><circle cx="124.7" cy="459.4" r="1.8" fill="#6D3E91"></circle><circle cx="135" cy="454.8" r="1.8" fill="#6D3E91"></circle><circle cx="145.3" cy="461.1" r="1.8" fill="#6D3E91"></circle><circle cx="155.7" cy="459.6" r="1.8" fill="#6D3E91"></circle><circle cx="166" cy="461.1" r="1.8" fill="#6D3E91"></circle><circle cx="176.3" cy="454.6" r="1.8" fill="#6D3E91"></circle><circle cx="186.6" cy="452.6" r="1.8" fill="#6D3E91"></circle><circle cx="196.9" cy="453.6" r="1.8" fill="#6D3E91"></circle><circle cx="207.3" cy="449.5" r="1.8" fill="#6D3E91"></circle><circle cx="217.6" cy="459.1" r="1.8" fill="#6D3E91"></circle><circle cx="227.9" cy="461.7" r="1.8" fill="#6D3E91"></circle><circle cx="238.2" cy="448.2" r="1.8" fill="#6D3E91"></circle><circle cx="248.5" cy="446.1" r="1.8" fill="#6D3E91"></circle><circle cx="258.9" cy="445.6" r="1.8" fill="#6D3E91"></circle><circle cx="269.2" cy="437.7" r="1.8" fill="#6D3E91"></circle><circle cx="279.5" cy="437.2" r="1.8" fill="#6D3E91"></circle><circle cx="289.8" cy="428.4" r="1.8" fill="#6D3E91"></circle><circle cx="300.1" cy="430.8" r="1.8" fill="#6D3E91"></circle><circle cx="310.5" cy="410.4" r="1.8" fill="#6D3E91"></circle><circle cx="320.8" cy="426.5" r="1.8" fill="#6D3E91"></circle><circle cx="331.1" cy="418.8" r="1.8" fill="#6D3E91"></circle><circle cx="341.4" cy="429.8" r="1.8" fill="#6D3E91"></circle><circle cx="351.7" cy="432.4" r="1.8" fill="#6D3E91"></circle><circle cx="362.1" cy="426.2" r="1.8" fill="#6D3E91"></circle><circle cx="372.4" cy="427" r="1.8" fill="#6D3E91"></circle><circle cx="382.7" cy="427" r="1.8" fill="#6D3E91"></circle><circle cx="393" cy="429.4" r="1.8" fill="#6D3E91"></circle><circle cx="403.3" cy="439.4" r="1.8" fill="#6D3E91"></circle><circle cx="413.7" cy="437.8" r="1.8" fill="#6D3E91"></circle><circle cx="424" cy="430.8" r="1.8" fill="#6D3E91"></circle><circle cx="434.3" cy="421" r="1.8" fill="#6D3E91"></circle><circle cx="444.6" cy="425" r="1.8" fill="#6D3E91"></circle><circle cx="454.9" cy="428.1" r="1.8" fill="#6D3E91"></circle><circle cx="465.3" cy="430.8" r="1.8" fill="#6D3E91"></circle><circle cx="475.6" cy="424.2" r="1.8" fill="#6D3E91"></circle><circle cx="485.9" cy="443.1" r="1.8" fill="#6D3E91"></circle><circle cx="496.2" cy="428.7" r="1.8" fill="#6D3E91"></circle><circle cx="506.5" cy="434.5" r="1.8" fill="#6D3E91"></circle><circle cx="516.9" cy="433.1" r="1.8" fill="#6D3E91"></circle><circle cx="527.2" cy="437.2" r="1.8" fill="#6D3E91"></circle><circle cx="537.5" cy="438.3" r="1.8" fill="#6D3E91"></circle><circle cx="547.8" cy="445" r="1.8" fill="#6D3E91"></circle><circle cx="558.1" cy="427.3" r="1.8" fill="#6D3E91"></circle><circle cx="568.5" cy="437.3" r="1.8" fill="#6D3E91"></circle><circle cx="578.8" cy="440.3" r="1.8" fill="#6D3E91"></circle><circle cx="589.1" cy="439" r="1.8" fill="#6D3E91"></circle><circle cx="599.4" cy="446.4" r="1.8" fill="#6D3E91"></circle><circle cx="609.7" cy="445" r="1.8" fill="#6D3E91"></circle><circle cx="620.1" cy="430.7" r="1.8" fill="#6D3E91"></circle><circle cx="630.4" cy="430.4" r="1.8" fill="#6D3E91"></circle><circle cx="640.7" cy="440.1" r="1.8" fill="#6D3E91"></circle><circle cx="651" cy="437.1" r="1.8" fill="#6D3E91"></circle><circle cx="661.3" cy="443.8" r="1.8" fill="#6D3E91"></circle><circle cx="671.7" cy="429.7" r="1.8" fill="#6D3E91"></circle><circle cx="682" cy="451.4" r="1.8" fill="#6D3E91"></circle><circle cx="692.3" cy="440.6" r="1.8" fill="#6D3E91"></circle><circle cx="702.6" cy="434.4" r="1.8" fill="#6D3E91"></circle></g></g><g id="line__India"><path id="outline" fill="none" stroke-linecap="butt" stroke-linejoin="round" stroke="#fff" stroke-width="2.5" d="M73.1 471.3L83.4 472.3L93.7 471.8L104.1 471.3L114.4 478.3L124.7 478.9L135 473.2L145.3 471.2L155.7 470.6L166 468.5L176.3 469.8L186.6 472.4L196.9 469.3L207.3 474.9L217.6 468.4L227.9 471.5L238.2 466.9L248.5 466.3L258.9 472.6L269.2 469.1L279.5 467.9L289.8 472.4L300.1 464.3L310.5 466.1L320.8 466.8L331.1 468L341.4 471.3L351.7 465L362.1 462L372.4 464.5L382.7 465.7L393 464.7L403.3 464L413.7 464.2L424 465.6L434.3 464.6L444.6 464.5L454.9 464.6L465.3 463.6L475.6 464.7L485.9 464L496.2 472L506.5 466.9L516.9 469L527.2 467.7L537.5 467.9L547.8 465.3L558.1 464.9L568.5 468.4L578.8 466L589.1 463.2L599.4 462.9L609.7 463.1L620.1 463.5L630.4 465.9L640.7 465L651 462.9L661.3 461.8L671.7 461.8L682 459.6L692.3 458.1L702.6 458.4"></path><g id="polyline"><polyline id="polyline" points="73.10,471.30 83.40,472.30 93.70,471.80 104.10,471.30 114.40,478.30 124.70,478.90 135.00,473.20 145.30,471.20 155.70,470.60 166.00,468.50 176.30,469.80 186.60,472.40 196.90,469.30 207.30,474.90 217.60,468.40 227.90,471.50 238.20,466.90 248.50,466.30 258.90,472.60 269.20,469.10 279.50,467.90 289.80,472.40 300.10,464.30 310.50,466.10 320.80,466.80 331.10,468.00 341.40,471.30 351.70,465.00 362.10,462.00 372.40,464.50 382.70,465.70 393.00,464.70 403.30,464.00 413.70,464.20 424.00,465.60 434.30,464.60 444.60,464.50 454.90,464.60 465.30,463.60 475.60,464.70 485.90,464.00 496.20,472.00 506.50,466.90 516.90,469.00 527.20,467.70 537.50,467.90 547.80,465.30 558.10,464.90 568.50,468.40 578.80,466.00 589.10,463.20 599.40,462.90 609.70,463.10 620.10,463.50 630.40,465.90 640.70,465.00 651.00,462.90 661.30,461.80 671.70,461.80 682.00,459.60 692.30,458.10 702.60,458.40" stroke-linejoin="round" stroke-width="1.5" stroke="#18470F" fill="none" stroke-linecap="butt"></polyline></g><g id="markers"><circle cx="73.1" cy="471.3" r="1.8" fill="#18470F"></circle><circle cx="83.4" cy="472.3" r="1.8" fill="#18470F"></circle><circle cx="93.7" cy="471.8" r="1.8" fill="#18470F"></circle><circle cx="104.1" cy="471.3" r="1.8" fill="#18470F"></circle><circle cx="114.4" cy="478.3" r="1.8" fill="#18470F"></circle><circle cx="124.7" cy="478.9" r="1.8" fill="#18470F"></circle><circle cx="135" cy="473.2" r="1.8" fill="#18470F"></circle><circle cx="145.3" cy="471.2" r="1.8" fill="#18470F"></circle><circle cx="155.7" cy="470.6" r="1.8" fill="#18470F"></circle><circle cx="166" cy="468.5" r="1.8" fill="#18470F"></circle><circle cx="176.3" cy="469.8" r="1.8" fill="#18470F"></circle><circle cx="186.6" cy="472.4" r="1.8" fill="#18470F"></circle><circle cx="196.9" cy="469.3" r="1.8" fill="#18470F"></circle><circle cx="207.3" cy="474.9" r="1.8" fill="#18470F"></circle><circle cx="217.6" cy="468.4" r="1.8" fill="#18470F"></circle><circle cx="227.9" cy="471.5" r="1.8" fill="#18470F"></circle><circle cx="238.2" cy="466.9" r="1.8" fill="#18470F"></circle><circle cx="248.5" cy="466.3" r="1.8" fill="#18470F"></circle><circle cx="258.9" cy="472.6" r="1.8" fill="#18470F"></circle><circle cx="269.2" cy="469.1" r="1.8" fill="#18470F"></circle><circle cx="279.5" cy="467.9" r="1.8" fill="#18470F"></circle><circle cx="289.8" cy="472.4" r="1.8" fill="#18470F"></circle><circle cx="300.1" cy="464.3" r="1.8" fill="#18470F"></circle><circle cx="310.5" cy="466.1" r="1.8" fill="#18470F"></circle><circle cx="320.8" cy="466.8" r="1.8" fill="#18470F"></circle><circle cx="331.1" cy="468" r="1.8" fill="#18470F"></circle><circle cx="341.4" cy="471.3" r="1.8" fill="#18470F"></circle><circle cx="351.7" cy="465" r="1.8" fill="#18470F"></circle><circle cx="362.1" cy="462" r="1.8" fill="#18470F"></circle><circle cx="372.4" cy="464.5" r="1.8" fill="#18470F"></circle><circle cx="382.7" cy="465.7" r="1.8" fill="#18470F"></circle><circle cx="393" cy="464.7" r="1.8" fill="#18470F"></circle><circle cx="403.3" cy="464" r="1.8" fill="#18470F"></circle><circle cx="413.7" cy="464.2" r="1.8" fill="#18470F"></circle><circle cx="424" cy="465.6" r="1.8" fill="#18470F"></circle><circle cx="434.3" cy="464.6" r="1.8" fill="#18470F"></circle><circle cx="444.6" cy="464.5" r="1.8" fill="#18470F"></circle><circle cx="454.9" cy="464.6" r="1.8" fill="#18470F"></circle><circle cx="465.3" cy="463.6" r="1.8" fill="#18470F"></circle><circle cx="475.6" cy="464.7" r="1.8" fill="#18470F"></circle><circle cx="485.9" cy="464" r="1.8" fill="#18470F"></circle><circle cx="496.2" cy="472" r="1.8" fill="#18470F"></circle><circle cx="506.5" cy="466.9" r="1.8" fill="#18470F"></circle><circle cx="516.9" cy="469" r="1.8" fill="#18470F"></circle><circle cx="527.2" cy="467.7" r="1.8" fill="#18470F"></circle><circle cx="537.5" cy="467.9" r="1.8" fill="#18470F"></circle><circle cx="547.8" cy="465.3" r="1.8" fill="#18470F"></circle><circle cx="558.1" cy="464.9" r="1.8" fill="#18470F"></circle><circle cx="568.5" cy="468.4" r="1.8" fill="#18470F"></circle><circle cx="578.8" cy="466" r="1.8" fill="#18470F"></circle><circle cx="589.1" cy="463.2" r="1.8" fill="#18470F"></circle><circle cx="599.4" cy="462.9" r="1.8" fill="#18470F"></circle><circle cx="609.7" cy="463.1" r="1.8" fill="#18470F"></circle><circle cx="620.1" cy="463.5" r="1.8" fill="#18470F"></circle><circle cx="630.4" cy="465.9" r="1.8" fill="#18470F"></circle><circle cx="640.7" cy="465" r="1.8" fill="#18470F"></circle><circle cx="651" cy="462.9" r="1.8" fill="#18470F"></circle><circle cx="661.3" cy="461.8" r="1.8" fill="#18470F"></circle><circle cx="671.7" cy="461.8" r="1.8" fill="#18470F"></circle><circle cx="682" cy="459.6" r="1.8" fill="#18470F"></circle><circle cx="692.3" cy="458.1" r="1.8" fill="#18470F"></circle><circle cx="702.6" cy="458.4" r="1.8" fill="#18470F"></circle></g></g><g id="line__Europe"><path id="outline" fill="none" stroke-linecap="butt" stroke-linejoin="round" stroke="#fff" stroke-width="2.5" d="M73.1 423.3L83.4 418.4L93.7 429.9L104.1 415.4L114.4 422.6L124.7 407.3L135 409.7L145.3 403.5L155.7 405.3L166 402.9L176.3 394.8L186.6 397.9L196.9 383.9L207.3 388.2L217.6 408.2L227.9 386.3L238.2 391.3L248.5 374.8L258.9 393.9L269.2 387L279.5 399.6L289.8 385.5L300.1 388.5L310.5 381.1L320.8 383.2L331.1 379.3L341.4 382.5L351.7 383.9L362.1 378.2L372.4 375L382.7 385.3L393 389.5L403.3 387.9L413.7 397L424 399.3L434.3 395.1L444.6 379.8L454.9 396.5L465.3 399.4L475.6 397.8L485.9 383.9L496.2 382.3L506.5 404.2L516.9 372.4L527.2 385.3L537.5 392L547.8 395.3L558.1 362.4L568.5 374.1L578.8 392.7L589.1 374.7L599.4 388.8L609.7 369.5L620.1 357.4L630.4 364.7L640.7 362.7L651 358.7L661.3 367L671.7 354.1L682 359.2L692.3 352.1L702.6 359.3"></path><g id="polyline"><polyline id="polyline" points="73.10,423.30 83.40,418.40 93.70,429.90 104.10,415.40 114.40,422.60 124.70,407.30 135.00,409.70 145.30,403.50 155.70,405.30 166.00,402.90 176.30,394.80 186.60,397.90 196.90,383.90 207.30,388.20 217.60,408.20 227.90,386.30 238.20,391.30 248.50,374.80 258.90,393.90 269.20,387.00 279.50,399.60 289.80,385.50 300.10,388.50 310.50,381.10 320.80,383.20 331.10,379.30 341.40,382.50 351.70,383.90 362.10,378.20 372.40,375.00 382.70,385.30 393.00,389.50 403.30,387.90 413.70,397.00 424.00,399.30 434.30,395.10 444.60,379.80 454.90,396.50 465.30,399.40 475.60,397.80 485.90,383.90 496.20,382.30 506.50,404.20 516.90,372.40 527.20,385.30 537.50,392.00 547.80,395.30 558.10,362.40 568.50,374.10 578.80,392.70 589.10,374.70 599.40,388.80 609.70,369.50 620.10,357.40 630.40,364.70 640.70,362.70 651.00,358.70 661.30,367.00 671.70,354.10 682.00,359.20 692.30,352.10 702.60,359.30" stroke-linejoin="round" stroke-width="1.5" stroke="#996D39" fill="none" stroke-linecap="butt"></polyline></g><g id="markers"><circle cx="73.1" cy="423.3" r="1.8" fill="#996D39"></circle><circle cx="83.4" cy="418.4" r="1.8" fill="#996D39"></circle><circle cx="93.7" cy="429.9" r="1.8" fill="#996D39"></circle><circle cx="104.1" cy="415.4" r="1.8" fill="#996D39"></circle><circle cx="114.4" cy="422.6" r="1.8" fill="#996D39"></circle><circle cx="124.7" cy="407.3" r="1.8" fill="#996D39"></circle><circle cx="135" cy="409.7" r="1.8" fill="#996D39"></circle><circle cx="145.3" cy="403.5" r="1.8" fill="#996D39"></circle><circle cx="155.7" cy="405.3" r="1.8" fill="#996D39"></circle><circle cx="166" cy="402.9" r="1.8" fill="#996D39"></circle><circle cx="176.3" cy="394.8" r="1.8" fill="#996D39"></circle><circle cx="186.6" cy="397.9" r="1.8" fill="#996D39"></circle><circle cx="196.9" cy="383.9" r="1.8" fill="#996D39"></circle><circle cx="207.3" cy="388.2" r="1.8" fill="#996D39"></circle><circle cx="217.6" cy="408.2" r="1.8" fill="#996D39"></circle><circle cx="227.9" cy="386.3" r="1.8" fill="#996D39"></circle><circle cx="238.2" cy="391.3" r="1.8" fill="#996D39"></circle><circle cx="248.5" cy="374.8" r="1.8" fill="#996D39"></circle><circle cx="258.9" cy="393.9" r="1.8" fill="#996D39"></circle><circle cx="269.2" cy="387" r="1.8" fill="#996D39"></circle><circle cx="279.5" cy="399.6" r="1.8" fill="#996D39"></circle><circle cx="289.8" cy="385.5" r="1.8" fill="#996D39"></circle><circle cx="300.1" cy="388.5" r="1.8" fill="#996D39"></circle><circle cx="310.5" cy="381.1" r="1.8" fill="#996D39"></circle><circle cx="320.8" cy="383.2" r="1.8" fill="#996D39"></circle><circle cx="331.1" cy="379.3" r="1.8" fill="#996D39"></circle><circle cx="341.4" cy="382.5" r="1.8" fill="#996D39"></circle><circle cx="351.7" cy="383.9" r="1.8" fill="#996D39"></circle><circle cx="362.1" cy="378.2" r="1.8" fill="#996D39"></circle><circle cx="372.4" cy="375" r="1.8" fill="#996D39"></circle><circle cx="382.7" cy="385.3" r="1.8" fill="#996D39"></circle><circle cx="393" cy="389.5" r="1.8" fill="#996D39"></circle><circle cx="403.3" cy="387.9" r="1.8" fill="#996D39"></circle><circle cx="413.7" cy="397" r="1.8" fill="#996D39"></circle><circle cx="424" cy="399.3" r="1.8" fill="#996D39"></circle><circle cx="434.3" cy="395.1" r="1.8" fill="#996D39"></circle><circle cx="444.6" cy="379.8" r="1.8" fill="#996D39"></circle><circle cx="454.9" cy="396.5" r="1.8" fill="#996D39"></circle><circle cx="465.3" cy="399.4" r="1.8" fill="#996D39"></circle><circle cx="475.6" cy="397.8" r="1.8" fill="#996D39"></circle><circle cx="485.9" cy="383.9" r="1.8" fill="#996D39"></circle><circle cx="496.2" cy="382.3" r="1.8" fill="#996D39"></circle><circle cx="506.5" cy="404.2" r="1.8" fill="#996D39"></circle><circle cx="516.9" cy="372.4" r="1.8" fill="#996D39"></circle><circle cx="527.2" cy="385.3" r="1.8" fill="#996D39"></circle><circle cx="537.5" cy="392" r="1.8" fill="#996D39"></circle><circle cx="547.8" cy="395.3" r="1.8" fill="#996D39"></circle><circle cx="558.1" cy="362.4" r="1.8" fill="#996D39"></circle><circle cx="568.5" cy="374.1" r="1.8" fill="#996D39"></circle><circle cx="578.8" cy="392.7" r="1.8" fill="#996D39"></circle><circle cx="589.1" cy="374.7" r="1.8" fill="#996D39"></circle><circle cx="599.4" cy="388.8" r="1.8" fill="#996D39"></circle><circle cx="609.7" cy="369.5" r="1.8" fill="#996D39"></circle><circle cx="620.1" cy="357.4" r="1.8" fill="#996D39"></circle><circle cx="630.4" cy="364.7" r="1.8" fill="#996D39"></circle><circle cx="640.7" cy="362.7" r="1.8" fill="#996D39"></circle><circle cx="651" cy="358.7" r="1.8" fill="#996D39"></circle><circle cx="661.3" cy="367" r="1.8" fill="#996D39"></circle><circle cx="671.7" cy="354.1" r="1.8" fill="#996D39"></circle><circle cx="682" cy="359.2" r="1.8" fill="#996D39"></circle><circle cx="692.3" cy="352.1" r="1.8" fill="#996D39"></circle><circle cx="702.6" cy="359.3" r="1.8" fill="#996D39"></circle></g></g><g id="line__China"><path id="outline" fill="none" stroke-linecap="butt" stroke-linejoin="round" stroke="#fff" stroke-width="2.5" d="M73.1 477.5L83.4 474.5L93.7 470.1L104.1 466.8L114.4 465.1L124.7 461.9L135 462.1L145.3 464.5L155.7 465.9L166 460.7L176.3 459L186.6 461.7L196.9 458.9L207.3 457L217.6 455.6L227.9 455.2L238.2 457.6L248.5 451.5L258.9 447.9L269.2 451.5L279.5 451.1L289.8 445.9L300.1 440.5L310.5 437.3L320.8 443.8L331.1 442.4L341.4 442.2L351.7 444.9L362.1 442.9L372.4 436.9L382.7 439.3L393 439.1L403.3 439.2L413.7 441.9L424 438.6L434.3 433L444.6 434.9L454.9 433.3L465.3 434.4L475.6 443.2L485.9 445.1L496.2 445.5L506.5 449.6L516.9 443.9L527.2 441.6L537.5 438.1L547.8 437.7L558.1 434.5L568.5 434.5L578.8 432.5L589.1 429.3L599.4 426.6L609.7 425L620.1 424.8L630.4 416.3L640.7 417.4L651 418.1L661.3 419.2L671.7 419L682 418.7L692.3 416.3L702.6 416.2"></path><g id="polyline"><polyline id="polyline" points="73.10,477.50 83.40,474.50 93.70,470.10 104.10,466.80 114.40,465.10 124.70,461.90 135.00,462.10 145.30,464.50 155.70,465.90 166.00,460.70 176.30,459.00 186.60,461.70 196.90,458.90 207.30,457.00 217.60,455.60 227.90,455.20 238.20,457.60 248.50,451.50 258.90,447.90 269.20,451.50 279.50,451.10 289.80,445.90 300.10,440.50 310.50,437.30 320.80,443.80 331.10,442.40 341.40,442.20 351.70,444.90 362.10,442.90 372.40,436.90 382.70,439.30 393.00,439.10 403.30,439.20 413.70,441.90 424.00,438.60 434.30,433.00 444.60,434.90 454.90,433.30 465.30,434.40 475.60,443.20 485.90,445.10 496.20,445.50 506.50,449.60 516.90,443.90 527.20,441.60 537.50,438.10 547.80,437.70 558.10,434.50 568.50,434.50 578.80,432.50 589.10,429.30 599.40,426.60 609.70,425.00 620.10,424.80 630.40,416.30 640.70,417.40 651.00,418.10 661.30,419.20 671.70,419.00 682.00,418.70 692.30,416.30 702.60,416.20" stroke-linejoin="round" stroke-width="1.5" stroke="#00847E" fill="none" stroke-linecap="butt"></polyline></g><g id="markers"><circle cx="73.1" cy="477.5" r="1.8" fill="#00847E"></circle><circle cx="83.4" cy="474.5" r="1.8" fill="#00847E"></circle><circle cx="93.7" cy="470.1" r="1.8" fill="#00847E"></circle><circle cx="104.1" cy="466.8" r="1.8" fill="#00847E"></circle><circle cx="114.4" cy="465.1" r="1.8" fill="#00847E"></circle><circle cx="124.7" cy="461.9" r="1.8" fill="#00847E"></circle><circle cx="135" cy="462.1" r="1.8" fill="#00847E"></circle><circle cx="145.3" cy="464.5" r="1.8" fill="#00847E"></circle><circle cx="155.7" cy="465.9" r="1.8" fill="#00847E"></circle><circle cx="166" cy="460.7" r="1.8" fill="#00847E"></circle><circle cx="176.3" cy="459" r="1.8" fill="#00847E"></circle><circle cx="186.6" cy="461.7" r="1.8" fill="#00847E"></circle><circle cx="196.9" cy="458.9" r="1.8" fill="#00847E"></circle><circle cx="207.3" cy="457" r="1.8" fill="#00847E"></circle><circle cx="217.6" cy="455.6" r="1.8" fill="#00847E"></circle><circle cx="227.9" cy="455.2" r="1.8" fill="#00847E"></circle><circle cx="238.2" cy="457.6" r="1.8" fill="#00847E"></circle><circle cx="248.5" cy="451.5" r="1.8" fill="#00847E"></circle><circle cx="258.9" cy="447.9" r="1.8" fill="#00847E"></circle><circle cx="269.2" cy="451.5" r="1.8" fill="#00847E"></circle><circle cx="279.5" cy="451.1" r="1.8" fill="#00847E"></circle><circle cx="289.8" cy="445.9" r="1.8" fill="#00847E"></circle><circle cx="300.1" cy="440.5" r="1.8" fill="#00847E"></circle><circle cx="310.5" cy="437.3" r="1.8" fill="#00847E"></circle><circle cx="320.8" cy="443.8" r="1.8" fill="#00847E"></circle><circle cx="331.1" cy="442.4" r="1.8" fill="#00847E"></circle><circle cx="341.4" cy="442.2" r="1.8" fill="#00847E"></circle><circle cx="351.7" cy="444.9" r="1.8" fill="#00847E"></circle><circle cx="362.1" cy="442.9" r="1.8" fill="#00847E"></circle><circle cx="372.4" cy="436.9" r="1.8" fill="#00847E"></circle><circle cx="382.7" cy="439.3" r="1.8" fill="#00847E"></circle><circle cx="393" cy="439.1" r="1.8" fill="#00847E"></circle><circle cx="403.3" cy="439.2" r="1.8" fill="#00847E"></circle><circle cx="413.7" cy="441.9" r="1.8" fill="#00847E"></circle><circle cx="424" cy="438.6" r="1.8" fill="#00847E"></circle><circle cx="434.3" cy="433" r="1.8" fill="#00847E"></circle><circle cx="444.6" cy="434.9" r="1.8" fill="#00847E"></circle><circle cx="454.9" cy="433.3" r="1.8" fill="#00847E"></circle><circle cx="465.3" cy="434.4" r="1.8" fill="#00847E"></circle><circle cx="475.6" cy="443.2" r="1.8" fill="#00847E"></circle><circle cx="485.9" cy="445.1" r="1.8" fill="#00847E"></circle><circle cx="496.2" cy="445.5" r="1.8" fill="#00847E"></circle><circle cx="506.5" cy="449.6" r="1.8" fill="#00847E"></circle><circle cx="516.9" cy="443.9" r="1.8" fill="#00847E"></circle><circle cx="527.2" cy="441.6" r="1.8" fill="#00847E"></circle><circle cx="537.5" cy="438.1" r="1.8" fill="#00847E"></circle><circle cx="547.8" cy="437.7" r="1.8" fill="#00847E"></circle><circle cx="558.1" cy="434.5" r="1.8" fill="#00847E"></circle><circle cx="568.5" cy="434.5" r="1.8" fill="#00847E"></circle><circle cx="578.8" cy="432.5" r="1.8" fill="#00847E"></circle><circle cx="589.1" cy="429.3" r="1.8" fill="#00847E"></circle><circle cx="599.4" cy="426.6" r="1.8" fill="#00847E"></circle><circle cx="609.7" cy="425" r="1.8" fill="#00847E"></circle><circle cx="620.1" cy="424.8" r="1.8" fill="#00847E"></circle><circle cx="630.4" cy="416.3" r="1.8" fill="#00847E"></circle><circle cx="640.7" cy="417.4" r="1.8" fill="#00847E"></circle><circle cx="651" cy="418.1" r="1.8" fill="#00847E"></circle><circle cx="661.3" cy="419.2" r="1.8" fill="#00847E"></circle><circle cx="671.7" cy="419" r="1.8" fill="#00847E"></circle><circle cx="682" cy="418.7" r="1.8" fill="#00847E"></circle><circle cx="692.3" cy="416.3" r="1.8" fill="#00847E"></circle><circle cx="702.6" cy="416.2" r="1.8" fill="#00847E"></circle></g></g><g id="line__Argentina"><path id="outline" fill="none" stroke-linecap="butt" stroke-linejoin="round" stroke="#fff" stroke-width="2.5" d="M73.1 360L83.4 368.2L93.7 336.1L104.1 303.8L114.4 376.1L124.7 344.4L135 325.4L145.3 359.3L155.7 341.3L166 330.8L176.3 315.1L186.6 346.1L196.9 305L207.3 310.7L217.6 318.8L227.9 306.5L238.2 329.3L248.5 290.4L258.9 314.8L269.2 367.9L279.5 283.1L289.8 254.1L300.1 277.7L310.5 280.1L320.8 310.8L331.1 327.7L341.4 352.7L351.7 359.3L362.1 390.1L372.4 385.1L382.7 362.6L393 346.6L403.3 349.1L413.7 362.6L424 349L434.3 364.6L444.6 289.5L454.9 269.7L465.3 323L475.6 289.5L485.9 299.7L496.2 311.2L506.5 328L516.9 320.2L527.2 278.8L537.5 334.8L547.8 282.9L558.1 269.5L568.5 372.9L578.8 302L589.1 245.5L599.4 266.7L609.7 251.9L620.1 254.3L630.4 230.7L640.7 207.6L651 134.7L661.3 166.3L671.7 105.3L682 97.9L692.3 90.5L702.6 74"></path><g id="polyline"><polyline id="polyline" points="73.10,360.00 83.40,368.20 93.70,336.10 104.10,303.80 114.40,376.10 124.70,344.40 135.00,325.40 145.30,359.30 155.70,341.30 166.00,330.80 176.30,315.10 186.60,346.10 196.90,305.00 207.30,310.70 217.60,318.80 227.90,306.50 238.20,329.30 248.50,290.40 258.90,314.80 269.20,367.90 279.50,283.10 289.80,254.10 300.10,277.70 310.50,280.10 320.80,310.80 331.10,327.70 341.40,352.70 351.70,359.30 362.10,390.10 372.40,385.10 382.70,362.60 393.00,346.60 403.30,349.10 413.70,362.60 424.00,349.00 434.30,364.60 444.60,289.50 454.90,269.70 465.30,323.00 475.60,289.50 485.90,299.70 496.20,311.20 506.50,328.00 516.90,320.20 527.20,278.80 537.50,334.80 547.80,282.90 558.10,269.50 568.50,372.90 578.80,302.00 589.10,245.50 599.40,266.70 609.70,251.90 620.10,254.30 630.40,230.70 640.70,207.60 651.00,134.70 661.30,166.30 671.70,105.30 682.00,97.90 692.30,90.50 702.60,74.00" stroke-linejoin="round" stroke-width="1.5" stroke="#286BBB" fill="none" stroke-linecap="butt"></polyline></g><g id="markers"><circle cx="73.1" cy="360" r="1.8" fill="#286BBB"></circle><circle cx="83.4" cy="368.2" r="1.8" fill="#286BBB"></circle><circle cx="93.7" cy="336.1" r="1.8" fill="#286BBB"></circle><circle cx="104.1" cy="303.8" r="1.8" fill="#286BBB"></circle><circle cx="114.4" cy="376.1" r="1.8" fill="#286BBB"></circle><circle cx="124.7" cy="344.4" r="1.8" fill="#286BBB"></circle><circle cx="135" cy="325.4" r="1.8" fill="#286BBB"></circle><circle cx="145.3" cy="359.3" r="1.8" fill="#286BBB"></circle><circle cx="155.7" cy="341.3" r="1.8" fill="#286BBB"></circle><circle cx="166" cy="330.8" r="1.8" fill="#286BBB"></circle><circle cx="176.3" cy="315.1" r="1.8" fill="#286BBB"></circle><circle cx="186.6" cy="346.1" r="1.8" fill="#286BBB"></circle><circle cx="196.9" cy="305" r="1.8" fill="#286BBB"></circle><circle cx="207.3" cy="310.7" r="1.8" fill="#286BBB"></circle><circle cx="217.6" cy="318.8" r="1.8" fill="#286BBB"></circle><circle cx="227.9" cy="306.5" r="1.8" fill="#286BBB"></circle><circle cx="238.2" cy="329.3" r="1.8" fill="#286BBB"></circle><circle cx="248.5" cy="290.4" r="1.8" fill="#286BBB"></circle><circle cx="258.9" cy="314.8" r="1.8" fill="#286BBB"></circle><circle cx="269.2" cy="367.9" r="1.8" fill="#286BBB"></circle><circle cx="279.5" cy="283.1" r="1.8" fill="#286BBB"></circle><circle cx="289.8" cy="254.1" r="1.8" fill="#286BBB"></circle><circle cx="300.1" cy="277.7" r="1.8" fill="#286BBB"></circle><circle cx="310.5" cy="280.1" r="1.8" fill="#286BBB"></circle><circle cx="320.8" cy="310.8" r="1.8" fill="#286BBB"></circle><circle cx="331.1" cy="327.7" r="1.8" fill="#286BBB"></circle><circle cx="341.4" cy="352.7" r="1.8" fill="#286BBB"></circle><circle cx="351.7" cy="359.3" r="1.8" fill="#286BBB"></circle><circle cx="362.1" cy="390.1" r="1.8" fill="#286BBB"></circle><circle cx="372.4" cy="385.1" r="1.8" fill="#286BBB"></circle><circle cx="382.7" cy="362.6" r="1.8" fill="#286BBB"></circle><circle cx="393" cy="346.6" r="1.8" fill="#286BBB"></circle><circle cx="403.3" cy="349.1" r="1.8" fill="#286BBB"></circle><circle cx="413.7" cy="362.6" r="1.8" fill="#286BBB"></circle><circle cx="424" cy="349" r="1.8" fill="#286BBB"></circle><circle cx="434.3" cy="364.6" r="1.8" fill="#286BBB"></circle><circle cx="444.6" cy="289.5" r="1.8" fill="#286BBB"></circle><circle cx="454.9" cy="269.7" r="1.8" fill="#286BBB"></circle><circle cx="465.3" cy="323" r="1.8" fill="#286BBB"></circle><circle cx="475.6" cy="289.5" r="1.8" fill="#286BBB"></circle><circle cx="485.9" cy="299.7" r="1.8" fill="#286BBB"></circle><circle cx="496.2" cy="311.2" r="1.8" fill="#286BBB"></circle><circle cx="506.5" cy="328" r="1.8" fill="#286BBB"></circle><circle cx="516.9" cy="320.2" r="1.8" fill="#286BBB"></circle><circle cx="527.2" cy="278.8" r="1.8" fill="#286BBB"></circle><circle cx="537.5" cy="334.8" r="1.8" fill="#286BBB"></circle><circle cx="547.8" cy="282.9" r="1.8" fill="#286BBB"></circle><circle cx="558.1" cy="269.5" r="1.8" fill="#286BBB"></circle><circle cx="568.5" cy="372.9" r="1.8" fill="#286BBB"></circle><circle cx="578.8" cy="302" r="1.8" fill="#286BBB"></circle><circle cx="589.1" cy="245.5" r="1.8" fill="#286BBB"></circle><circle cx="599.4" cy="266.7" r="1.8" fill="#286BBB"></circle><circle cx="609.7" cy="251.9" r="1.8" fill="#286BBB"></circle><circle cx="620.1" cy="254.3" r="1.8" fill="#286BBB"></circle><circle cx="630.4" cy="230.7" r="1.8" fill="#286BBB"></circle><circle cx="640.7" cy="207.6" r="1.8" fill="#286BBB"></circle><circle cx="651" cy="134.7" r="1.8" fill="#286BBB"></circle><circle cx="661.3" cy="166.3" r="1.8" fill="#286BBB"></circle><circle cx="671.7" cy="105.3" r="1.8" fill="#286BBB"></circle><circle cx="682" cy="97.9" r="1.8" fill="#286BBB"></circle><circle cx="692.3" cy="90.5" r="1.8" fill="#286BBB"></circle><circle cx="702.6" cy="74" r="1.8" fill="#286BBB"></circle></g></g><g id="line__Africa"><path id="outline" fill="none" stroke-linecap="butt" stroke-linejoin="round" stroke="#fff" stroke-width="2.5" d="M73.1 478.6L83.4 474.2L93.7 474.2L104.1 477.2L114.4 477.6L124.7 480.6L135 473.7L145.3 476.1L155.7 476.3L166 477L176.3 474.8L186.6 476.1L196.9 481.4L207.3 474.6L217.6 477.2L227.9 477.5L238.2 480.4L248.5 479.9L258.9 482L269.2 480.1L279.5 479.4L289.8 482.1L300.1 485.7L310.5 485.9L320.8 480.6L331.1 479.3L341.4 481.3L351.7 478.9L362.1 477.5L372.4 480.5L382.7 478.4L393 484.6L403.3 481L413.7 479.5L424 483.3L434.3 476.6L444.6 481.7L454.9 481.1L465.3 481.6L475.6 483.1L485.9 483L496.2 482.6L506.5 480.5L516.9 480.4L527.2 479.8L537.5 478.7L547.8 481.8L558.1 478.8L568.5 478.8L578.8 477.5L589.1 479.6L599.4 478.9L609.7 478.8L620.1 477.2L630.4 478.9L640.7 479.5L651 477.2L661.3 477.7L671.7 479.7L682 478.7L692.3 478.3L702.6 479.7"></path><g id="polyline"><polyline id="polyline" points="73.10,478.60 83.40,474.20 93.70,474.20 104.10,477.20 114.40,477.60 124.70,480.60 135.00,473.70 145.30,476.10 155.70,476.30 166.00,477.00 176.30,474.80 186.60,476.10 196.90,481.40 207.30,474.60 217.60,477.20 227.90,477.50 238.20,480.40 248.50,479.90 258.90,482.00 269.20,480.10 279.50,479.40 289.80,482.10 300.10,485.70 310.50,485.90 320.80,480.60 331.10,479.30 341.40,481.30 351.70,478.90 362.10,477.50 372.40,480.50 382.70,478.40 393.00,484.60 403.30,481.00 413.70,479.50 424.00,483.30 434.30,476.60 444.60,481.70 454.90,481.10 465.30,481.60 475.60,483.10 485.90,483.00 496.20,482.60 506.50,480.50 516.90,480.40 527.20,479.80 537.50,478.70 547.80,481.80 558.10,478.80 568.50,478.80 578.80,477.50 589.10,479.60 599.40,478.90 609.70,478.80 620.10,477.20 630.40,478.90 640.70,479.50 651.00,477.20 661.30,477.70 671.70,479.70 682.00,478.70 692.30,478.30 702.60,479.70" stroke-linejoin="round" stroke-width="1.5" stroke="#970046" fill="none" stroke-linecap="butt"></polyline></g><g id="markers"><circle cx="73.1" cy="478.6" r="1.8" fill="#970046"></circle><circle cx="83.4" cy="474.2" r="1.8" fill="#970046"></circle><circle cx="93.7" cy="474.2" r="1.8" fill="#970046"></circle><circle cx="104.1" cy="477.2" r="1.8" fill="#970046"></circle><circle cx="114.4" cy="477.6" r="1.8" fill="#970046"></circle><circle cx="124.7" cy="480.6" r="1.8" fill="#970046"></circle><circle cx="135" cy="473.7" r="1.8" fill="#970046"></circle><circle cx="145.3" cy="476.1" r="1.8" fill="#970046"></circle><circle cx="155.7" cy="476.3" r="1.8" fill="#970046"></circle><circle cx="166" cy="477" r="1.8" fill="#970046"></circle><circle cx="176.3" cy="474.8" r="1.8" fill="#970046"></circle><circle cx="186.6" cy="476.1" r="1.8" fill="#970046"></circle><circle cx="196.9" cy="481.4" r="1.8" fill="#970046"></circle><circle cx="207.3" cy="474.6" r="1.8" fill="#970046"></circle><circle cx="217.6" cy="477.2" r="1.8" fill="#970046"></circle><circle cx="227.9" cy="477.5" r="1.8" fill="#970046"></circle><circle cx="238.2" cy="480.4" r="1.8" fill="#970046"></circle><circle cx="248.5" cy="479.9" r="1.8" fill="#970046"></circle><circle cx="258.9" cy="482" r="1.8" fill="#970046"></circle><circle cx="269.2" cy="480.1" r="1.8" fill="#970046"></circle><circle cx="279.5" cy="479.4" r="1.8" fill="#970046"></circle><circle cx="289.8" cy="482.1" r="1.8" fill="#970046"></circle><circle cx="300.1" cy="485.7" r="1.8" fill="#970046"></circle><circle cx="310.5" cy="485.9" r="1.8" fill="#970046"></circle><circle cx="320.8" cy="480.6" r="1.8" fill="#970046"></circle><circle cx="331.1" cy="479.3" r="1.8" fill="#970046"></circle><circle cx="341.4" cy="481.3" r="1.8" fill="#970046"></circle><circle cx="351.7" cy="478.9" r="1.8" fill="#970046"></circle><circle cx="362.1" cy="477.5" r="1.8" fill="#970046"></circle><circle cx="372.4" cy="480.5" r="1.8" fill="#970046"></circle><circle cx="382.7" cy="478.4" r="1.8" fill="#970046"></circle><circle cx="393" cy="484.6" r="1.8" fill="#970046"></circle><circle cx="403.3" cy="481" r="1.8" fill="#970046"></circle><circle cx="413.7" cy="479.5" r="1.8" fill="#970046"></circle><circle cx="424" cy="483.3" r="1.8" fill="#970046"></circle><circle cx="434.3" cy="476.6" r="1.8" fill="#970046"></circle><circle cx="444.6" cy="481.7" r="1.8" fill="#970046"></circle><circle cx="454.9" cy="481.1" r="1.8" fill="#970046"></circle><circle cx="465.3" cy="481.6" r="1.8" fill="#970046"></circle><circle cx="475.6" cy="483.1" r="1.8" fill="#970046"></circle><circle cx="485.9" cy="483" r="1.8" fill="#970046"></circle><circle cx="496.2" cy="482.6" r="1.8" fill="#970046"></circle><circle cx="506.5" cy="480.5" r="1.8" fill="#970046"></circle><circle cx="516.9" cy="480.4" r="1.8" fill="#970046"></circle><circle cx="527.2" cy="479.8" r="1.8" fill="#970046"></circle><circle cx="537.5" cy="478.7" r="1.8" fill="#970046"></circle><circle cx="547.8" cy="481.8" r="1.8" fill="#970046"></circle><circle cx="558.1" cy="478.8" r="1.8" fill="#970046"></circle><circle cx="568.5" cy="478.8" r="1.8" fill="#970046"></circle><circle cx="578.8" cy="477.5" r="1.8" fill="#970046"></circle><circle cx="589.1" cy="479.6" r="1.8" fill="#970046"></circle><circle cx="599.4" cy="478.9" r="1.8" fill="#970046"></circle><circle cx="609.7" cy="478.8" r="1.8" fill="#970046"></circle><circle cx="620.1" cy="477.2" r="1.8" fill="#970046"></circle><circle cx="630.4" cy="478.9" r="1.8" fill="#970046"></circle><circle cx="640.7" cy="479.5" r="1.8" fill="#970046"></circle><circle cx="651" cy="477.2" r="1.8" fill="#970046"></circle><circle cx="661.3" cy="477.7" r="1.8" fill="#970046"></circle><circle cx="671.7" cy="479.7" r="1.8" fill="#970046"></circle><circle cx="682" cy="478.7" r="1.8" fill="#970046"></circle><circle cx="692.3" cy="478.3" r="1.8" fill="#970046"></circle><circle cx="702.6" cy="479.7" r="1.8" fill="#970046"></circle></g></g></g></g></g></g><g id="footer" class="SourcesFooter" style="fill:#5b5b5b"><g id="sources" class="markdown-text-wrap"><text x="16.0" y="562.7" style="font-size:13.5px;line-height:1.2"><tspan x="16" y="562.7"><tspan style="font-weight:700">Data source:</tspan> UN Food and Agriculture Organization (FAO)</tspan></text></g><g id="note" class="markdown-text-wrap"><text x="16.0" y="580.9" style="font-size:13.5px;line-height:1.2"><tspan x="16" y="580.9"><tspan style="font-weight:700">Note:</tspan> Cereals include wheat, rice, maize, barley, oats, rye, millet, sorghum, buckwheat, and mixed grains.</tspan></text></g><text id="origin-url" font-size="13.50" x="792.7" y="562.7"><tspan x="792.69" y="562.695"><a target="_blank" style="fill: #5b5b5b;" href="https://creativecommons.org/licenses/by/4.0/">CC BY</a></tspan></text></g></svg>